<svg width="231" height="74" viewBox="0 0 231 74" fill="none" xmlns="http://www.w3.org/2000/svg">
<g clip-path="url(#clip0_83_798)">
<path d="M68.85 68.26C65.97 71.2 61.61 72.4 56.08 73.08C50.59 73.73 43.92 73.85 37.26 73.87C30.6 73.85 23.93 73.72 18.44 73.08C12.91 72.4 8.55 71.2 5.67 68.26C2.71 65.4 1.5 61.08 0.81 55.6C0.15 50.15 0.02 43.54 0 36.93C0.02 30.32 0.15 23.71 0.8 18.27C1.49 12.79 2.69 8.46 5.66 5.61C8.54 2.67 12.9 1.47 18.43 0.79C23.92 0.15 30.59 0.02 37.25 0C43.91 0.02 50.58 0.15 56.07 0.79C61.6 1.47 65.96 2.67 68.84 5.61C71.8 8.47 73.01 12.79 73.7 18.27C74.35 23.72 74.48 30.33 74.5 36.93C74.48 43.54 74.35 50.15 73.7 55.59C73.01 61.07 71.81 65.4 68.84 68.25L68.85 68.26ZM64.31 30.76C63.56 29.2 61.79 28.39 60.08 28.05C57.45 27.53 54.73 27.82 52.07 28.19C49.28 28.59 47.24 28.99 44.49 29.21C50.75 22.66 55.82 17.35 56.63 16.51C56.09 19.63 54.92 25.28 54.78 25.67L57.06 26.96C57.28 26.57 60.62 13.57 60.89 11.75C60.98 11.15 60.79 10.44 60.27 10.12C59.97 9.94 59.6 9.93 59.24 9.94C53.51 10.12 41.88 14.41 41.88 14.41L43.06 16.16C43.06 16.16 48.89 15 53.57 14.24C52.52 15.43 43.78 24.4 34.68 33.69C34.75 33.58 34.82 33.49 34.88 33.39C34.94 33.16 35.09 32.06 35.09 31.91C35.65 26.03 34.22 13.37 34.22 13.37L29.12 14.81C29.21 20.74 29.19 26.82 28.1 32.66C27.74 34.56 27.11 36.46 25.85 37.92C23.8 40.3 20.79 40.93 19.01 38.1C16.13 33.52 15.72 27.85 14.98 22.65C13.25 23.04 11.42 23.52 9.77 24.15C9.87 27.83 10.08 31.51 10.65 35.15C11.21 38.76 12.57 42.43 15.35 44.83C17.52 46.71 19.78 46.75 22.36 46.28C16.93 51.81 13 55.83 13 55.83L16.37 57.92C16.5 58 16.65 57.99 16.77 57.9C17.61 57.26 31.26 43.03 42.38 31.41C42.27 32.29 41.78 34.7 42.83 35.01C43.24 35.13 43.68 35.01 44.08 34.88C48.17 33.68 52.5 33.07 56.71 33.75C57.03 33.8 57.35 33.86 57.58 34.1C57.64 34.16 57.69 34.24 57.73 34.32C57.86 34.67 57.64 34.89 57.43 35.08C53.59 38.58 48.8 40.32 43.79 41.45C43.65 41.48 43.5 41.51 43.36 41.45C43.23 41.4 43.15 41.27 43.08 41.14C42.39 39.85 42.78 38.27 42.07 36.99C41.84 36.58 41.3 36.49 40.97 36.54C40.15 36.67 39.51 37.35 39.2 38.1C37.8 41.48 38.59 49.89 38.81 53.43C39.04 57.14 39.86 59.47 40.35 63.14C40.37 63.29 40.39 63.44 40.48 63.56C40.57 63.69 40.72 63.76 40.88 63.82C41.61 64.09 44.02 63.41 44.28 63.03C45.1 61.82 44.88 60.52 44.93 59.12C44.99 56.98 45.01 54.84 45.01 52.71C45.01 52.19 44.9 47.11 44.25 47.11C48.05 46.36 51.23 45.82 54.6 44.35C56.95 43.33 59.21 42.06 61.05 40.3C62.89 38.54 64.28 36.25 64.65 33.74C64.8 32.73 64.77 31.66 64.32 30.74L64.31 30.76Z" fill="#FDFDFB"/>
<path d="M96.25 37.07C95.42 37.83 94.45 38.45 93.33 38.95C92.22 39.44 90.98 39.69 89.62 39.69C88.75 39.69 87.78 39.57 86.68 39.32C85.58 39.07 84.56 38.59 83.61 37.86C82.66 37.14 81.86 36.14 81.22 34.87C80.57 33.6 80.25 31.95 80.25 29.9V15.52H84.84V29.9C84.84 30.92 85 31.79 85.31 32.49C85.63 33.2 86.04 33.77 86.56 34.2C87.07 34.63 87.66 34.94 88.33 35.14C89 35.34 89.68 35.44 90.37 35.44C90.9 35.44 91.51 35.34 92.19 35.14C92.87 34.94 93.51 34.62 94.11 34.18C94.71 33.74 95.22 33.17 95.63 32.47C96.05 31.78 96.25 30.94 96.25 29.95V15.52H101.09V39.2H97.25L96.25 37.07Z" fill="#FDFDFB"/>
<path d="M111.61 39.2H106.77V15.52H110.61L111.61 17.55C112.21 16.86 112.92 16.26 113.75 15.75C114.58 15.24 115.59 14.98 116.79 14.98C117.26 14.98 117.78 15.04 118.36 15.15C118.94 15.27 119.54 15.46 120.15 15.74C120.76 16.02 121.36 16.4 121.92 16.88C122.48 17.36 122.97 17.98 123.37 18.73C123.93 17.71 124.79 16.83 125.94 16.09C127.09 15.35 128.31 14.98 129.61 14.98C130.47 14.98 131.39 15.11 132.35 15.38C133.31 15.65 134.21 16.14 135.04 16.86C135.87 17.59 136.55 18.59 137.08 19.88C137.61 21.17 137.88 22.83 137.88 24.87V39.2H133.34V24.82C133.34 22.78 132.92 21.35 132.07 20.54C131.22 19.73 130.1 19.33 128.7 19.33C127.64 19.33 126.71 19.78 125.91 20.66C125.11 21.54 124.71 22.95 124.71 24.86V39.19H120.17V24.81C120.17 22.77 119.75 21.34 118.9 20.53C118.05 19.72 116.93 19.32 115.53 19.32C114.53 19.32 113.66 19.7 112.91 20.46C112.16 21.22 111.72 22.4 111.59 24.02V39.2H111.61Z" fill="#FDFDFB"/>
<path d="M148.4 39.2H143.56V15.52H147.4L148.4 17.55C149 16.86 149.71 16.26 150.54 15.75C151.37 15.24 152.38 14.98 153.58 14.98C154.05 14.98 154.57 15.04 155.15 15.15C155.73 15.27 156.33 15.46 156.94 15.74C157.55 16.02 158.15 16.4 158.71 16.88C159.27 17.36 159.76 17.98 160.16 18.73C160.72 17.71 161.58 16.83 162.73 16.09C163.88 15.35 165.1 14.98 166.4 14.98C167.26 14.98 168.18 15.11 169.14 15.38C170.1 15.65 171 16.14 171.83 16.86C172.66 17.59 173.34 18.59 173.87 19.88C174.4 21.17 174.67 22.83 174.67 24.87V39.2H170.13V24.82C170.13 22.78 169.71 21.35 168.86 20.54C168.01 19.73 166.89 19.33 165.49 19.33C164.43 19.33 163.5 19.78 162.7 20.66C161.9 21.54 161.5 22.95 161.5 24.86V39.19H156.96V24.81C156.96 22.77 156.54 21.34 155.69 20.53C154.84 19.72 153.72 19.32 152.32 19.32C151.32 19.32 150.45 19.7 149.7 20.46C148.95 21.22 148.51 22.4 148.38 24.02V39.2H148.4Z" fill="#FDFDFB"/>
<path d="M202.99 15.52V39.2H198.9L198.15 36.48C197.32 37.57 196.26 38.39 194.96 38.95C193.66 39.51 192.35 39.79 191.02 39.79C189.36 39.79 187.8 39.47 186.36 38.83C184.91 38.19 183.65 37.31 182.57 36.19C181.49 35.07 180.63 33.75 180 32.24C179.37 30.72 179.05 29.11 179.05 27.4C179.05 25.69 179.37 24.07 180 22.56C180.63 21.04 181.49 19.73 182.57 18.6C183.65 17.48 184.91 16.6 186.36 15.96C187.81 15.32 189.36 15 191.02 15C192.35 15 193.63 15.26 194.86 15.77C196.09 16.28 197.19 17.08 198.15 18.17L198.9 15.55H202.99V15.52ZM191.03 35.54C191.99 35.54 192.91 35.33 193.77 34.9C194.63 34.47 195.38 33.89 196.01 33.15C196.64 32.41 197.14 31.54 197.51 30.56C197.88 29.57 198.06 28.52 198.06 27.4C198.06 26.28 197.88 25.23 197.51 24.24C197.14 23.25 196.64 22.39 196.01 21.64C195.38 20.9 194.63 20.31 193.77 19.89C192.9 19.46 191.99 19.25 191.03 19.25C190.07 19.25 189.15 19.46 188.29 19.89C187.43 20.32 186.68 20.9 186.05 21.64C185.42 22.38 184.92 23.25 184.55 24.24C184.18 25.23 184 26.28 184 27.4C184 28.52 184.18 29.57 184.55 30.56C184.92 31.55 185.41 32.41 186.05 33.15C186.68 33.89 187.43 34.48 188.29 34.9C189.15 35.33 190.07 35.54 191.03 35.54Z" fill="#FDFDFB"/>
<path d="M212.76 39.2H207.92V3.10999H212.76V17.69C213.64 16.7 214.58 16 215.56 15.59C216.54 15.18 217.67 14.97 218.97 14.97C220.63 14.97 222.11 15.29 223.42 15.93C224.73 16.57 225.85 17.45 226.78 18.57C227.71 19.69 228.41 21.01 228.89 22.53C229.37 24.05 229.61 25.66 229.61 27.37V39.18H224.77V27.37C224.77 26.25 224.61 25.2 224.3 24.21C223.98 23.22 223.55 22.36 223 21.64C222.45 20.92 221.82 20.35 221.11 19.93C220.4 19.52 219.62 19.31 218.79 19.31C218.09 19.31 217.39 19.45 216.7 19.73C216.01 20.01 215.36 20.46 214.78 21.09C214.2 21.72 213.72 22.54 213.33 23.56C212.95 24.58 212.76 25.82 212.76 27.27V39.18V39.2Z" fill="#FDFDFB"/>
<path d="M78.8101 67.22V49.15H80.8601L81.3901 50.48C81.9101 49.96 82.5101 49.56 83.1801 49.28C83.8501 48.99 84.6201 48.85 85.4601 48.85C86.3601 48.85 87.1901 49.02 87.9601 49.37C88.7201 49.72 89.3901 50.19 89.9401 50.8C90.5001 51.4 90.9301 52.12 91.2501 52.93C91.5601 53.75 91.7201 54.62 91.7201 55.55C91.7201 56.48 91.5601 57.35 91.2501 58.17C90.9301 58.99 90.5001 59.7 89.9401 60.31C89.3801 60.91 88.7201 61.39 87.9601 61.74C87.2001 62.09 86.3601 62.26 85.4601 62.26C84.5601 62.26 83.8001 62.11 83.1401 61.82C82.4701 61.53 81.8901 61.1 81.3901 60.55V67.22H78.8101ZM85.2601 51.21C84.7401 51.21 84.2401 51.29 83.7701 51.46C83.3001 51.63 82.8901 51.9 82.5401 52.26C82.1901 52.63 81.9101 53.08 81.7201 53.62C81.5201 54.16 81.4201 54.81 81.4201 55.56C81.4201 56.36 81.5201 57.04 81.7201 57.6C81.9201 58.16 82.1901 58.61 82.5401 58.96C82.8901 59.31 83.3001 59.56 83.7701 59.72C84.2401 59.88 84.7301 59.96 85.2601 59.96C85.7901 59.96 86.2801 59.84 86.7501 59.61C87.2201 59.38 87.6201 59.06 87.9701 58.66C88.3101 58.26 88.5801 57.79 88.7801 57.26C88.9801 56.73 89.0801 56.16 89.0801 55.55C89.0801 54.94 88.9801 54.38 88.7801 53.84C88.5801 53.31 88.3101 52.84 87.9701 52.45C87.6301 52.06 87.2201 51.75 86.7501 51.53C86.2801 51.31 85.7901 51.2 85.2601 51.2V51.21Z" fill="#FDFDFB"/>
<path d="M101.4 51.37C101.29 51.33 101.17 51.3 101.02 51.26C100.88 51.22 100.72 51.21 100.56 51.21C100.04 51.21 99.56 51.29 99.11 51.46C98.66 51.63 98.28 51.86 97.95 52.14C97.63 52.43 97.37 52.76 97.18 53.14C96.99 53.52 96.9 53.93 96.9 54.35L96.87 61.93H94.26V49.14H96.33L96.87 50.56C97.23 50.04 97.7 49.63 98.28 49.32C98.86 49.01 99.59 48.85 100.47 48.85C101.04 48.85 101.7 48.93 102.43 49.09L101.76 51.52C101.63 51.47 101.51 51.41 101.38 51.36L101.4 51.37Z" fill="#FDFDFB"/>
<path d="M109.83 62.26C108.93 62.26 108.09 62.09 107.31 61.74C106.53 61.39 105.85 60.92 105.26 60.31C104.68 59.7 104.21 58.99 103.87 58.17C103.53 57.35 103.36 56.48 103.36 55.55C103.36 54.62 103.53 53.75 103.87 52.93C104.21 52.11 104.67 51.4 105.26 50.8C105.84 50.19 106.53 49.72 107.31 49.37C108.09 49.02 108.93 48.85 109.83 48.85C110.73 48.85 111.54 49.02 112.33 49.37C113.12 49.72 113.81 50.19 114.39 50.8C114.97 51.4 115.43 52.12 115.78 52.93C116.12 53.75 116.29 54.62 116.29 55.55C116.29 56.48 116.12 57.35 115.78 58.17C115.44 58.99 114.98 59.7 114.39 60.31C113.81 60.91 113.12 61.39 112.33 61.74C111.54 62.09 110.71 62.26 109.83 62.26ZM109.81 51.15C109.29 51.15 108.79 51.27 108.32 51.5C107.85 51.73 107.44 52.04 107.09 52.44C106.74 52.83 106.46 53.3 106.27 53.83C106.08 54.36 105.97 54.94 105.97 55.54C105.97 56.14 106.07 56.72 106.27 57.25C106.47 57.79 106.74 58.25 107.09 58.66C107.44 59.06 107.85 59.38 108.32 59.61C108.79 59.84 109.28 59.96 109.81 59.96C110.34 59.96 110.83 59.84 111.3 59.61C111.77 59.38 112.17 59.06 112.52 58.66C112.86 58.26 113.13 57.79 113.33 57.25C113.53 56.71 113.63 56.14 113.63 55.54C113.63 54.94 113.53 54.36 113.33 53.83C113.13 53.29 112.86 52.83 112.52 52.44C112.18 52.05 111.77 51.73 111.3 51.5C110.83 51.27 110.34 51.15 109.81 51.15Z" fill="#FDFDFB"/>
<path d="M120.25 61.94V51.45H118.04V49.68L120.25 49.15V47.6C120.25 46.69 120.37 45.9 120.6 45.24C120.83 44.57 121.15 44.03 121.56 43.6C121.96 43.17 122.43 42.86 122.95 42.65C123.47 42.45 124.03 42.34 124.62 42.34C125.36 42.34 126.1 42.49 126.85 42.79V44.68C126.2 44.48 125.65 44.39 125.18 44.39C124.44 44.39 123.87 44.61 123.47 45.06C123.07 45.51 122.86 46.22 122.86 47.2V49.15H126.84V51.45H122.86V61.94H120.25Z" fill="#FDFDFB"/>
<path d="M134.73 62.26C133.8 62.26 132.92 62.09 132.11 61.74C131.29 61.39 130.58 60.92 129.97 60.31C129.36 59.7 128.88 58.99 128.53 58.17C128.18 57.35 128.01 56.48 128.01 55.55C128.01 54.62 128.18 53.75 128.51 52.93C128.84 52.11 129.29 51.4 129.86 50.8C130.43 50.19 131.08 49.72 131.84 49.37C132.59 49.02 133.4 48.85 134.26 48.85C135.12 48.85 135.95 49 136.7 49.3C137.45 49.6 138.09 50.07 138.64 50.72C139.19 51.37 139.61 52.17 139.92 53.16C140.22 54.15 140.38 55.33 140.38 56.7H130.8C130.93 57.16 131.12 57.59 131.39 57.99C131.66 58.39 131.98 58.74 132.35 59.03C132.72 59.32 133.13 59.55 133.59 59.71C134.05 59.87 134.53 59.95 135.03 59.95C135.71 59.95 136.35 59.83 136.93 59.58C137.51 59.33 138.01 59 138.42 58.59L140.04 60.19C139.41 60.81 138.64 61.31 137.74 61.69C136.84 62.07 135.84 62.25 134.77 62.25L134.73 62.26ZM134.25 51.21C133.84 51.21 133.45 51.29 133.08 51.45C132.71 51.61 132.37 51.83 132.06 52.12C131.75 52.41 131.48 52.74 131.25 53.13C131.03 53.52 130.86 53.95 130.75 54.41H137.56C137.52 53.98 137.43 53.57 137.26 53.18C137.1 52.79 136.87 52.45 136.59 52.15C136.31 51.85 135.97 51.63 135.58 51.46C135.19 51.29 134.75 51.21 134.25 51.21Z" fill="#FDFDFB"/>
<path d="M148.89 59.2701C149.05 59.1301 149.2 58.9701 149.32 58.7901C149.44 58.6101 149.51 58.4101 149.51 58.1801C149.51 57.9001 149.41 57.6601 149.2 57.4601C148.99 57.2601 148.74 57.1001 148.45 56.9701C148.15 56.8401 147.84 56.7301 147.52 56.6601C147.2 56.5901 146.93 56.5301 146.71 56.4701C146.12 56.3301 145.56 56.1501 145.04 55.9501C144.52 55.7401 144.07 55.5001 143.68 55.2001C143.29 54.9001 142.99 54.5601 142.76 54.1601C142.54 53.7601 142.42 53.2801 142.42 52.7301C142.42 52.2101 142.54 51.7301 142.79 51.2701C143.04 50.8101 143.37 50.4201 143.79 50.0701C144.21 49.7201 144.7 49.4501 145.26 49.2401C145.82 49.0301 146.42 48.9301 147.05 48.9301C147.61 48.9301 148.14 49.0101 148.64 49.1701C149.14 49.3301 149.6 49.5501 150 49.8301C150.4 50.1101 150.74 50.4501 151.02 50.8401C151.3 51.2301 151.48 51.6701 151.57 52.1501L149.23 52.7101C149.12 52.2801 148.89 51.9301 148.53 51.6401C148.17 51.3601 147.68 51.2101 147.05 51.2101C146.83 51.2101 146.61 51.2401 146.38 51.3001C146.15 51.3601 145.93 51.4601 145.73 51.5801C145.53 51.7001 145.37 51.8601 145.23 52.0301C145.09 52.2001 145.03 52.4101 145.03 52.6401C145.03 52.8901 145.11 53.1001 145.26 53.2801C145.41 53.4601 145.6 53.6001 145.81 53.7201C146.02 53.8401 146.26 53.9301 146.51 54.0001C146.76 54.0701 147 54.1301 147.21 54.1901C148.16 54.4201 148.95 54.6701 149.58 54.9401C150.21 55.2101 150.71 55.5001 151.09 55.8201C151.47 56.1401 151.73 56.4901 151.88 56.8701C152.03 57.2501 152.11 57.6801 152.11 58.1601C152.11 58.7301 151.98 59.2601 151.72 59.7601C151.46 60.2601 151.1 60.6901 150.65 61.0501C150.19 61.4101 149.65 61.7001 149.01 61.9001C148.37 62.1001 147.69 62.2101 146.96 62.2101C145.85 62.2101 144.86 61.9401 143.99 61.4001C143.12 60.8601 142.54 60.1301 142.23 59.2201L144.44 58.2301C144.73 58.8501 145.09 59.2801 145.54 59.5001C145.99 59.7201 146.5 59.8301 147.07 59.8301C147.79 59.8301 148.39 59.6301 148.87 59.2401L148.89 59.2701Z" fill="#FDFDFB"/>
<path d="M160.47 59.2701C160.63 59.1301 160.78 58.9701 160.9 58.7901C161.02 58.6101 161.09 58.4101 161.09 58.1801C161.09 57.9001 160.99 57.6601 160.78 57.4601C160.57 57.2601 160.32 57.1001 160.03 56.9701C159.73 56.8401 159.42 56.7301 159.1 56.6601C158.78 56.5901 158.51 56.5301 158.29 56.4701C157.7 56.3301 157.14 56.1501 156.62 55.9501C156.1 55.7401 155.65 55.5001 155.26 55.2001C154.87 54.9001 154.57 54.5601 154.34 54.1601C154.12 53.7601 154 53.2801 154 52.7301C154 52.2101 154.12 51.7301 154.37 51.2701C154.62 50.8101 154.95 50.4201 155.37 50.0701C155.79 49.7201 156.28 49.4501 156.84 49.2401C157.4 49.0301 158 48.9301 158.63 48.9301C159.19 48.9301 159.72 49.0101 160.22 49.1701C160.72 49.3301 161.18 49.5501 161.58 49.8301C161.98 50.1101 162.32 50.4501 162.6 50.8401C162.88 51.2301 163.06 51.6701 163.15 52.1501L160.81 52.7101C160.7 52.2801 160.47 51.9301 160.11 51.6401C159.75 51.3601 159.26 51.2101 158.63 51.2101C158.41 51.2101 158.19 51.2401 157.96 51.3001C157.73 51.3601 157.51 51.4601 157.31 51.5801C157.11 51.7001 156.95 51.8601 156.81 52.0301C156.67 52.2001 156.61 52.4101 156.61 52.6401C156.61 52.8901 156.69 53.1001 156.84 53.2801C156.99 53.4601 157.18 53.6001 157.39 53.7201C157.6 53.8401 157.84 53.9301 158.09 54.0001C158.34 54.0701 158.58 54.1301 158.79 54.1901C159.74 54.4201 160.53 54.6701 161.16 54.9401C161.79 55.2101 162.29 55.5001 162.67 55.8201C163.05 56.1401 163.31 56.4901 163.46 56.8701C163.61 57.2501 163.69 57.6801 163.69 58.1601C163.69 58.7301 163.56 59.2601 163.3 59.7601C163.04 60.2601 162.68 60.6901 162.23 61.0501C161.77 61.4101 161.23 61.7001 160.59 61.9001C159.95 62.1001 159.27 62.2101 158.54 62.2101C157.43 62.2101 156.44 61.9401 155.57 61.4001C154.7 60.8601 154.12 60.1301 153.81 59.2201L156.02 58.2301C156.31 58.8501 156.67 59.2801 157.12 59.5001C157.57 59.7201 158.08 59.8301 158.65 59.8301C159.37 59.8301 159.97 59.6301 160.45 59.2401L160.47 59.2701Z" fill="#FDFDFB"/>
<path d="M167.44 46.37C166.97 46.37 166.58 46.21 166.26 45.88C165.94 45.55 165.78 45.15 165.78 44.69C165.78 44.23 165.94 43.84 166.26 43.52C166.58 43.2 166.98 43.04 167.44 43.04C167.9 43.04 168.3 43.2 168.62 43.52C168.94 43.84 169.11 44.23 169.11 44.69C169.11 45.15 168.95 45.55 168.62 45.88C168.3 46.21 167.9 46.37 167.44 46.37ZM168.79 61.94H166.15V49.15H168.76L168.79 61.94Z" fill="#FDFDFB"/>
<path d="M177.35 62.26C176.45 62.26 175.61 62.09 174.83 61.74C174.05 61.39 173.37 60.92 172.78 60.31C172.2 59.7 171.73 58.99 171.39 58.17C171.05 57.35 170.88 56.48 170.88 55.55C170.88 54.62 171.05 53.75 171.39 52.93C171.73 52.11 172.19 51.4 172.78 50.8C173.36 50.19 174.05 49.72 174.83 49.37C175.61 49.02 176.45 48.85 177.35 48.85C178.25 48.85 179.06 49.02 179.85 49.37C180.64 49.72 181.33 50.19 181.91 50.8C182.49 51.4 182.95 52.12 183.3 52.93C183.64 53.75 183.81 54.62 183.81 55.55C183.81 56.48 183.64 57.35 183.3 58.17C182.96 58.99 182.5 59.7 181.91 60.31C181.33 60.91 180.64 61.39 179.85 61.74C179.06 62.09 178.23 62.26 177.35 62.26ZM177.33 51.15C176.81 51.15 176.31 51.27 175.84 51.5C175.37 51.73 174.96 52.04 174.61 52.44C174.26 52.83 173.98 53.3 173.79 53.83C173.6 54.36 173.49 54.94 173.49 55.54C173.49 56.14 173.59 56.72 173.79 57.25C173.99 57.79 174.26 58.25 174.61 58.66C174.96 59.06 175.37 59.38 175.84 59.61C176.31 59.84 176.8 59.96 177.33 59.96C177.86 59.96 178.35 59.84 178.82 59.61C179.29 59.38 179.69 59.06 180.04 58.66C180.38 58.26 180.65 57.79 180.85 57.25C181.05 56.71 181.15 56.14 181.15 55.54C181.15 54.94 181.05 54.36 180.85 53.83C180.65 53.29 180.38 52.83 180.04 52.44C179.7 52.05 179.29 51.73 178.82 51.5C178.35 51.27 177.86 51.15 177.33 51.15Z" fill="#FDFDFB"/>
<path d="M188.47 61.94H185.86V49.15H187.93L188.47 50.27C188.9 49.86 189.42 49.52 190.03 49.26C190.64 48.99 191.3 48.86 192.02 48.86C192.49 48.86 193.02 48.93 193.61 49.07C194.2 49.21 194.75 49.48 195.27 49.87C195.78 50.26 196.21 50.8 196.56 51.5C196.91 52.19 197.09 53.09 197.09 54.2V61.94H194.61V54.17C194.61 53.62 194.53 53.15 194.35 52.77C194.17 52.39 193.96 52.08 193.68 51.85C193.4 51.62 193.09 51.45 192.74 51.36C192.39 51.26 192.03 51.21 191.65 51.21C191.36 51.21 191.03 51.26 190.67 51.37C190.3 51.48 189.96 51.65 189.63 51.89C189.3 52.13 189.03 52.43 188.81 52.8C188.59 53.17 188.47 53.61 188.47 54.15V61.94Z" fill="#FDFDFB"/>
<path d="M212.51 49.15V61.94H210.3L209.9 60.47C209.45 61.06 208.88 61.5 208.18 61.8C207.48 62.1 206.77 62.25 206.05 62.25C205.15 62.25 204.31 62.08 203.53 61.73C202.75 61.38 202.07 60.91 201.48 60.3C200.9 59.69 200.43 58.98 200.09 58.16C199.75 57.34 199.58 56.47 199.58 55.54C199.58 54.61 199.75 53.74 200.09 52.92C200.43 52.1 200.89 51.39 201.48 50.79C202.06 50.18 202.74 49.71 203.53 49.36C204.31 49.01 205.15 48.84 206.05 48.84C206.77 48.84 207.46 48.98 208.12 49.25C208.78 49.53 209.38 49.96 209.9 50.54L210.3 49.12H212.51V49.15ZM206.04 59.96C206.56 59.96 207.05 59.84 207.52 59.61C207.99 59.38 208.39 59.06 208.73 58.66C209.07 58.26 209.34 57.79 209.54 57.26C209.74 56.73 209.84 56.16 209.84 55.55C209.84 54.94 209.74 54.38 209.54 53.84C209.34 53.31 209.07 52.84 208.73 52.44C208.39 52.04 207.98 51.72 207.52 51.49C207.05 51.26 206.56 51.14 206.04 51.14C205.52 51.14 205.03 51.26 204.56 51.49C204.09 51.72 203.69 52.04 203.35 52.44C203.01 52.84 202.74 53.31 202.54 53.84C202.34 54.37 202.24 54.94 202.24 55.55C202.24 56.16 202.34 56.72 202.54 57.26C202.74 57.79 203.01 58.26 203.35 58.66C203.69 59.06 204.09 59.38 204.56 59.61C205.03 59.84 205.52 59.96 206.04 59.96Z" fill="#FDFDFB"/>
<path d="M217.92 42.45V61.9399H215.31V42.45H217.92Z" fill="#FDFDFB"/>
<path d="M226.88 59.2701C227.04 59.1301 227.19 58.9701 227.31 58.7901C227.43 58.6101 227.5 58.4101 227.5 58.1801C227.5 57.9001 227.4 57.6601 227.19 57.4601C226.98 57.2601 226.73 57.1001 226.44 56.9701C226.14 56.8401 225.83 56.7301 225.51 56.6601C225.19 56.5901 224.92 56.5301 224.7 56.4701C224.11 56.3301 223.55 56.1501 223.03 55.9501C222.51 55.7401 222.06 55.5001 221.67 55.2001C221.28 54.9001 220.98 54.5601 220.75 54.1601C220.53 53.7601 220.41 53.2801 220.41 52.7301C220.41 52.2101 220.53 51.7301 220.78 51.2701C221.03 50.8101 221.36 50.4201 221.78 50.0701C222.2 49.7201 222.69 49.4501 223.25 49.2401C223.81 49.0301 224.41 48.9301 225.04 48.9301C225.6 48.9301 226.13 49.0101 226.63 49.1701C227.13 49.3301 227.59 49.5501 227.99 49.8301C228.39 50.1101 228.73 50.4501 229.01 50.8401C229.29 51.2301 229.47 51.6701 229.56 52.1501L227.22 52.7101C227.11 52.2801 226.88 51.9301 226.52 51.6401C226.16 51.3601 225.67 51.2101 225.04 51.2101C224.82 51.2101 224.6 51.2401 224.37 51.3001C224.14 51.3601 223.92 51.4601 223.72 51.5801C223.52 51.7001 223.36 51.8601 223.22 52.0301C223.08 52.2001 223.02 52.4101 223.02 52.6401C223.02 52.8901 223.1 53.1001 223.25 53.2801C223.4 53.4601 223.59 53.6001 223.8 53.7201C224.01 53.8401 224.25 53.9301 224.5 54.0001C224.75 54.0701 224.99 54.1301 225.2 54.1901C226.15 54.4201 226.94 54.6701 227.57 54.9401C228.2 55.2101 228.7 55.5001 229.08 55.8201C229.46 56.1401 229.72 56.4901 229.87 56.8701C230.02 57.2501 230.1 57.6801 230.1 58.1601C230.1 58.7301 229.97 59.2601 229.71 59.7601C229.45 60.2601 229.09 60.6901 228.64 61.0501C228.18 61.4101 227.64 61.7001 227 61.9001C226.36 62.1001 225.68 62.2101 224.95 62.2101C223.84 62.2101 222.85 61.9401 221.98 61.4001C221.11 60.8601 220.53 60.1301 220.22 59.2201L222.43 58.2301C222.72 58.8501 223.08 59.2801 223.53 59.5001C223.98 59.7201 224.49 59.8301 225.06 59.8301C225.78 59.8301 226.38 59.6301 226.86 59.2401L226.88 59.2701Z" fill="#FDFDFB"/>
</g>
<defs>
<clipPath id="clip0_83_798">
<rect width="230.11" height="73.87" fill="white"/>
</clipPath>
</defs>
</svg>
